<svg xmlns="http://www.w3.org/2000/svg" width="250" height="250"><defs><style>.cls-1{fill:#fff;stroke:#000;stroke-width:5px;fill-rule:evenodd}</style></defs><path class="cls-1" d="M125 27c60 0 110 19 110 44H16c0-25 49-44 109-44zm0 152h110c0 25-50 45-110 45S16 204 16 179h109zM98 83h10v20H98V83zm10 10H98m10-10h48v20h-48V83zm-90 0h80v20H18V83z"/><path id="Rectangle_1_copy" data-name="Rectangle 1 copy" class="cls-1" d="M81 115h10v20H81v-20zm10 10H81m10-10h141v20H91v-20zm-73 0h63v20H18v-20z"/><path id="Rectangle_1_copy_2" data-name="Rectangle 1 copy 2" class="cls-1" d="M126 147h10v20h-10v-20zm10 10h-10m10-10h56v20h-56v-20zm-118 0h108v20H18v-20z"/></svg>