<svg xmlns="http://www.w3.org/2000/svg" viewBox="0 0 1124.4 198.1"><style>.st0{fill:#e4411f}.st1{fill:#7c858e}</style><g id="Layer_1"><path class="st0" d="M219 66l-8-3c-1-9-4-17-7-25l-10 17c-10 13-22 23-35 33A291 291 0 018 138c9 14 25 24 43 24h143c10 0 19 0 28-5 8-5 15-12 21-20a47 47 0 00-24-71z"/><path class="st1" d="M67 111c30-5 60-15 87-30 14-8 27-17 37-29l11-17a69 69 0 00-119-2c-5-3-11-4-17-4-19 0-35 15-36 35a52 52 0 00-30 51c22 2 45 0 67-4z"/></g><g id="Layer_2"><path class="st0" d="M388 67c0 23-9 37-27 43l33 50h-27l-31-46h-28v46h-22V23h48c19 0 33 3 42 10 8 7 12 19 12 34zm-28 20c4-4 6-11 6-20s-2-15-6-18c-5-4-13-5-25-5h-27v49h27c12 0 20-2 25-6z"/><path class="st0" d="M487 117h-76c0 8 3 14 9 19 6 4 13 7 21 7 12 0 21-4 28-13l11 14a53 53 0 01-41 18c-13 0-25-5-35-15a54 54 0 01-14-39c0-17 5-30 15-39a48 48 0 0169-2c8 9 13 20 13 35v15zm-76-17h55c0-9-2-15-7-20s-12-7-19-7c-8 0-14 2-20 7s-9 12-9 20zM545 54c13 0 24 5 34 15 9 9 14 22 14 38s-5 29-14 40c-9 10-20 15-32 15-13 0-24-6-33-18v54h-21V56h21v18c8-13 18-20 31-20zm-32 54c0 10 3 18 9 24 5 7 12 10 20 10s15-3 21-9c6-7 9-15 9-25s-3-18-9-25c-6-6-13-10-21-10s-15 4-20 10c-6 7-9 15-9 25zM688 146a48 48 0 01-37 16c-14 0-26-6-36-16a53 53 0 01-15-38c0-15 5-28 15-38 10-11 22-16 36-16 15 0 27 5 37 16 10 10 15 23 15 38s-5 28-15 38zm-59-14c6 7 13 10 22 10s17-3 22-10c6-6 9-14 9-24s-3-18-8-25c-6-6-14-9-23-9s-16 3-22 9c-5 7-8 15-8 25s3 18 8 24zM759 76c-10 0-18 4-23 11s-8 16-8 28v45h-20V56h20v21c3-7 8-12 14-17 5-4 11-6 18-6v22h-1zM798 73v53c0 5 1 9 4 12 2 3 6 4 10 4 4 1 9-2 13-6l8 15c-7 7-15 10-24 10-9 1-16-3-22-9-6-7-9-15-9-26V73h-13V56h13V23h20v33h26v17h-26z"/><path class="st1" d="M894 129c6 7 14 11 24 11s18-4 24-11c6-8 9-18 9-30V23h21v77c0 20-5 35-15 46a51 51 0 01-39 16c-16 0-29-6-39-16-10-11-15-26-15-46V23h22v76c0 12 3 22 8 30zM1090 67c0 23-9 37-28 43l34 50h-27l-31-46h-28v46h-22V23h48c19 0 33 3 41 10 9 7 13 19 13 34zm-29 20c5-4 7-11 7-20s-2-15-7-18c-4-4-13-5-24-5h-28v49h27c13 0 21-2 25-6zM1103 23h21v137h-21V23z"/></g></svg>